<?xml version="1.0" encoding="UTF-8" standalone="no"?>
<svg
   xmlns:dc="http://purl.org/dc/elements/1.1/"
   xmlns:cc="http://creativecommons.org/ns#"
   xmlns:rdf="http://www.w3.org/1999/02/22-rdf-syntax-ns#"
   xmlns:svg="http://www.w3.org/2000/svg"
   xmlns="http://www.w3.org/2000/svg"
   height="15.927917mm"
   id="svg978"
   version="1.1"
   viewBox="0 0 13.335 15.927917"
   width="13.335mm">
  <defs
     id="defs972" />
  <metadata
     id="metadata975">
    <rdf:RDF>
      <cc:Work
         rdf:about="">
        <dc:format>image/svg+xml</dc:format>
        <dc:type
           rdf:resource="http://purl.org/dc/dcmitype/StillImage" />
        <dc:title></dc:title>
      </cc:Work>
    </rdf:RDF>
  </metadata>
  <g
     transform="translate(-7.808988,-6.8012207)"
     id="layer1">
    <g
       style="stroke-width:2.06379294"
       transform="matrix(0.13022461,0,0,0.1262117,7.808988,6.8012207)"
       id="g898">
      <g
         style="stroke-width:2.06379294"
         id="g896">
        <g
           style="stroke-width:2.06379294"
           id="g872">
          <path
             style="fill:white;stroke-width:2.06379294"
             d="m 84,1.9 v 5.7 c 0,0 -10.2,-3.8 -16.8,3.1 -4.8,5 -5.2,10.6 -3,18.1 21.6,0 25,12.1 25,12.1 L 87,27 93.8,18.7 v 0 C 93.8,8.9 85.7,2.4 84,1.9 Z"
             id="path870" />
        </g>
        <g
           style="stroke-width:2.06379294"
           id="g876">
          <path
             style="fill:white;stroke-width:2.06379294"
             d="M 87.6,43.6"
             id="path874" />
        </g>
        <g
           style="stroke-width:2.06379294"
           id="g880">
          <circle
             style="stroke-width:2.06379294"
             cx="85.900002"
             cy="15.9"
             r="2.5999999"
             id="circle878" />
        </g>
        <g
           style="stroke-width:2.06379294"
           id="g886">
          <g
             style="stroke-width:2.06379294"
             id="g884">
            <path
               style="stroke-width:2.06379294"
               d="m 89.2,40.9 c 0,0 -3.3,-16.6 -24.9,-12.1 -2.2,-7.5 -1.8,-13 3,-18.1 C 73.8,3.8 84,7.6 84,7.6 V 1.9 C 80.4,0.3 77,0 73.2,0 59.3,0 51.6,10.4 48.3,17.4 L 9.2,89.3 20.2,87.2 0,126.2 14.1,123.7 24.9,93 C 55.5,93 94.7,82 89.2,40.9 Z"
               id="path882" />
          </g>
        </g>
        <g
           style="stroke-width:2.06379294"
           id="g890">
          <polygon
             style="stroke-width:2.06379294"
             points="102.4,27 93.8,18.7 87,27 "
             id="polygon888" />
        </g>
        <g
           style="stroke-width:2.06379294"
           id="g894">
          <path
             style="fill:white;stroke-width:2.06379294"
             d="m 30,84.1 c 0,0 1,-0.2 2.8,-0.6 1.8,-0.4 4.3,-1 7.3,-1.8 1.5,-0.4 3.1,-0.9 4.8,-1.5 1.7,-0.6 3.5,-1.2 5.2,-2 1.8,-0.7 3.6,-1.6 5.4,-2.6 1.8,-1 3.5,-2.1 5.1,-3.4 0.4,-0.3 0.8,-0.6 1.2,-1 l 1.2,-1 c 0.7,-0.7 1.5,-1.4 2.2,-2.2 0.7,-0.7 1.3,-1.5 1.9,-2.3 0.3,-0.4 0.6,-0.8 0.9,-1.2 l 0.4,-0.6 0.4,-0.6 c 0.2,-0.4 0.5,-0.8 0.7,-1.2 0.2,-0.4 0.4,-0.8 0.7,-1.2 0.1,-0.2 0.2,-0.4 0.3,-0.6 0.1,-0.2 0.2,-0.4 0.3,-0.6 0.2,-0.4 0.4,-0.8 0.5,-1.2 0.3,-0.8 0.6,-1.6 0.9,-2.4 0.2,-0.8 0.5,-1.6 0.7,-2.3 0.2,-0.7 0.3,-1.5 0.5,-2.1 0.1,-0.7 0.2,-1.3 0.3,-2 0.1,-0.6 0.2,-1.2 0.2,-1.7 0.1,-0.5 0.1,-1 0.2,-1.5 0.1,-1.8 0.1,-2.8 0.1,-2.8 l 1.6,0.1 c 0,0 -0.1,1.1 -0.2,2.9 -0.1,0.5 -0.1,1 -0.2,1.5 -0.1,0.6 -0.1,1.2 -0.3,1.8 -0.1,0.6 -0.3,1.3 -0.4,2 -0.2,0.7 -0.4,1.4 -0.6,2.2 -0.2,0.8 -0.5,1.5 -0.8,2.4 -0.3,0.8 -0.6,1.6 -1,2.5 -0.2,0.4 -0.4,0.8 -0.6,1.2 -0.1,0.2 -0.2,0.4 -0.3,0.6 -0.1,0.2 -0.2,0.4 -0.3,0.6 -0.2,0.4 -0.5,0.8 -0.7,1.3 -0.3,0.4 -0.5,0.8 -0.8,1.2 -0.1,0.2 -0.3,0.4 -0.4,0.6 l -0.4,0.6 c -0.3,0.4 -0.6,0.8 -0.9,1.2 -0.7,0.8 -1.3,1.6 -2.1,2.3 -0.7,0.8 -1.5,1.4 -2.3,2.2 l -1.2,1 c -0.4,0.3 -0.8,0.6 -1.3,0.9 -1.7,1.2 -3.5,2.3 -5.3,3.3 -1.8,0.9 -3.7,1.8 -5.5,2.5 -1.8,0.7 -3.6,1.3 -5.3,1.8 -1.7,0.5 -3.3,1 -4.9,1.3 -3,0.7 -5.6,1.3 -7.4,1.6 C 31,83.9 30,84.1 30,84.1 Z"
             id="path892" />
        </g>
      </g>
    </g>
  </g>
</svg>
